<?xml version="1.0" standalone="no"?>
<!DOCTYPE svg PUBLIC "-//W3C//DTD SVG 20010904//EN"
 "http://www.w3.org/TR/2001/REC-SVG-20010904/DTD/svg10.dtd">
<svg version="1.0" xmlns="http://www.w3.org/2000/svg"
 width="4000.000000pt" height="4000.000000pt" viewBox="0 0 4000.000000 4000.000000"
 preserveAspectRatio="xMidYMid meet">
<metadata>
Created by potrace 1.11, written by Peter Selinger 2001-2013
</metadata>
<g transform="translate(0.000000,4000.000000) scale(0.100000,-0.100000)"
fill="#000000" stroke="none">
<path d="M2649 31316 c-2 -2 -33 -7 -69 -10 -564 -59 -1105 -388 -1429 -871
-42 -62 -141 -231 -141 -241 0 -2 -14 -34 -31 -71 -70 -153 -133 -387 -158
-593 -6 -45 -9 -3801 -10 -9540 0 -10146 -3 -9532 48 -9755 42 -184 70 -262
156 -440 52 -108 126 -235 162 -280 5 -5 20 -26 33 -45 13 -19 29 -40 35 -47
116 -131 163 -180 228 -238 43 -39 84 -75 90 -81 79 -71 380 -246 497 -289
172 -62 238 -82 360 -106 69 -14 80 -16 150 -25 84 -11 34562 -12 34655 -1
360 43 732 200 1018 429 265 212 479 502 608 825 59 148 109 344 127 502 9 85
9 19015 0 19101 -43 382 -204 761 -448 1055 -32 39 -236 243 -277 277 -197
166 -559 343 -801 393 -41 9 -78 17 -81 19 -3 2 -30 7 -60 11 -30 4 -63 10
-75 13 -22 7 -34579 15 -34587 8z"/>
</g>
</svg>
