<?xml version="1.0" standalone="no"?>
<!DOCTYPE svg PUBLIC "-//W3C//DTD SVG 20010904//EN"
 "http://www.w3.org/TR/2001/REC-SVG-20010904/DTD/svg10.dtd">
<svg version="1.0" xmlns="http://www.w3.org/2000/svg"
 width="1280.000000pt" height="1034.000000pt" viewBox="0 0 1280.000000 1034.000000"
 preserveAspectRatio="xMidYMid meet">
<metadata>
Created by potrace 1.15, written by Peter Selinger 2001-2017
</metadata>
<g transform="translate(0.000000,1034.000000) scale(0.100000,-0.100000)"
fill="#535353" stroke="none">
<path d="M995 10329 c-382 -56 -715 -299 -879 -642 -334 -698 90 -1513 853
-1643 135 -23 342 -15 471 19 211 55 376 150 531 306 168 167 271 359 319 591
31 147 24 368 -14 515 -33 125 -116 297 -195 402 -252 335 -676 511 -1086 452z"/>
<path d="M3670 9180 l0 -820 4565 0 4565 0 0 820 0 820 -4565 0 -4565 0 0
-820z"/>
<path d="M1045 6334 c-399 -44 -745 -283 -923 -639 -75 -151 -110 -284 -119
-455 -29 -548 333 -1037 873 -1181 113 -30 365 -38 488 -14 333 62 613 258
789 551 96 159 147 335 154 533 7 159 -7 266 -49 401 -127 402 -454 696 -873
785 -72 15 -270 26 -340 19z"/>
<path d="M3670 5180 l0 -820 4565 0 4565 0 0 820 0 820 -4565 0 -4565 0 0
-820z"/>
<path d="M954 2295 c-315 -60 -592 -242 -759 -499 -69 -107 -99 -168 -135
-276 -192 -573 101 -1207 662 -1433 426 -172 894 -83 1234 236 141 131 268
347 321 542 24 92 27 116 27 290 0 174 -2 198 -26 287 -113 414 -425 727 -836
835 -81 21 -124 26 -257 29 -106 2 -184 -2 -231 -11z"/>
<path d="M3670 1160 l0 -820 4565 0 4565 0 0 820 0 820 -4565 0 -4565 0 0
-820z"/>
</g>
</svg>
