<?xml version="1.0" standalone="no"?>
<!DOCTYPE svg PUBLIC "-//W3C//DTD SVG 20010904//EN"
 "http://www.w3.org/TR/2001/REC-SVG-20010904/DTD/svg10.dtd">
<svg version="1.0" xmlns="http://www.w3.org/2000/svg"
 width="1280.000000pt" height="688.000000pt" viewBox="0 0 1280.000000 688.000000"
 preserveAspectRatio="xMidYMid meet">
<metadata>
Created by potrace 1.15, written by Peter Selinger 2001-2017
</metadata>
<g transform="translate(0.000000,688.000000) scale(0.100000,-0.100000)"
fill="#673ab7" stroke="none">
<path d="M1055 6873 c-104 -12 -234 -40 -325 -70 -300 -100 -534 -289 -651
-528 -81 -167 -74 116 -77 -2795 -2 -1917 0 -2615 8 -2670 65 -424 463 -737
1020 -800 67 -8 1258 -10 4030 -8 l3935 4 95 21 c199 45 341 103 485 198 160
106 272 229 346 380 65 134 71 170 78 456 l6 255 525 -409 c289 -225 562 -433
606 -463 99 -65 181 -103 294 -135 82 -23 97 -24 400 -24 299 0 320 1 405 24
172 45 315 127 415 238 60 68 126 195 140 272 6 35 10 963 10 2620 0 2826 5
2618 -61 2742 -88 164 -289 301 -524 355 -69 16 -124 19 -390 19 -298 0 -313
-1 -395 -24 -192 -55 -216 -70 -915 -589 l-510 -378 -6 260 c-6 275 -11 307
-63 436 -58 142 -188 294 -339 394 -176 117 -370 185 -617 215 -58 8 -1307 11
-3990 10 -2148 -1 -3918 -4 -3935 -6z m7948 -902 c70 -29 140 -89 170 -145
l22 -41 0 -2285 0 -2285 -22 -41 c-30 -56 -100 -116 -170 -145 l-58 -24 -3472
-3 -3473 -2 0 -21 c0 -20 -4 -21 -54 -15 -120 14 -232 82 -279 170 l-22 41 0
2305 0 2305 22 41 c41 76 131 139 233 164 19 4 1612 7 3540 7 l3505 -2 58 -24z
m3037 -48 c0 -43 -5 -607 -10 -1253 -5 -646 -14 -1762 -20 -2480 -6 -717 -12
-1305 -14 -1307 -7 -7 -320 39 -396 58 l-85 21 -755 617 -755 617 -3 1262 -2
1262 799 599 c439 330 817 609 840 620 29 15 87 27 203 40 90 10 171 19 181
20 15 1 17 -9 17 -76z"/>
</g>
</svg>
